HIERARCHY
ROOT Root
{
  OFFSET 0.0 0.0 0.0
  CHANNELS 6 Xposition Yposition Zposition Zrotation Yrotation Xrotation
  JOINT Hips
  {
    OFFSET 0.0 100.0 0.0
    CHANNELS 6 Xposition Yposition Zposition Zrotation Yrotation Xrotation
    JOINT Spine1
    {
      OFFSET -0.013727 5.003763 -0.053727
      CHANNELS 3 Zrotation Yrotation Xrotation
      JOINT Spine2
      {
        OFFSET -0.0 7.125301 -0.029825
        CHANNELS 3 Zrotation Yrotation Xrotation
        JOINT Chest
        {
          OFFSET -1e-06 7.550063 -0.815971
          CHANNELS 3 Zrotation Yrotation Xrotation
          JOINT Neck1
          {
            OFFSET -0.181677 26.311295 -0.553348
            CHANNELS 3 Zrotation Yrotation Xrotation
            JOINT Neck2
            {
              OFFSET -3e-06 7.709397 2.302585
              CHANNELS 3 Zrotation Yrotation Xrotation
              JOINT Head
              {
                OFFSET -5e-06 6.128916 1.953709
                CHANNELS 3 Zrotation Yrotation Xrotation
                JOINT HeadEnd
                {
                  OFFSET 0.003598 16.065403 -1.835379
                  CHANNELS 3 Zrotation Yrotation Xrotation
                }
                JOINT Jaw
                {
                  OFFSET 0.002637 0.475592 3.094941
                  CHANNELS 3 Zrotation Yrotation Xrotation
                }
                JOINT LeftEye
                {
                  OFFSET 3.206381 5.380205 7.586883
                  CHANNELS 3 Zrotation Yrotation Xrotation
                }
                JOINT RightEye
                {
                  OFFSET -3.22244 5.361869 7.558234
                  CHANNELS 3 Zrotation Yrotation Xrotation
                }
              }
            }
          }
          JOINT LeftShoulder
          {
            OFFSET 1.621652 23.237164 5.113413
            CHANNELS 3 Zrotation Yrotation Xrotation
            JOINT LeftArm
            {
              OFFSET 14.919846 2e-06 -5.502326
              CHANNELS 3 Zrotation Yrotation Xrotation
              JOINT LeftForeArm
              {
                OFFSET 28.739307 0.0 -0.002588
                CHANNELS 3 Zrotation Yrotation Xrotation
                JOINT LeftHand
                {
                  OFFSET 27.093981 -1e-06 0.002609
                  CHANNELS 3 Zrotation Yrotation Xrotation
                  JOINT LeftHandThumb1
                  {
                    OFFSET 2.276482 -1.392045 3.191413
                    CHANNELS 3 Zrotation Yrotation Xrotation
                    JOINT LeftHandThumb2
                    {
                      OFFSET 4.012836 -1.828127 1.641654
                      CHANNELS 3 Zrotation Yrotation Xrotation
                      JOINT LeftHandThumb3
                      {
                        OFFSET 2.798515 0.0 -3e-06
                        CHANNELS 3 Zrotation Yrotation Xrotation
                        JOINT LeftHandThumbEnd
                        {
                          OFFSET 3.180793 -4e-06 4e-06
                          CHANNELS 3 Zrotation Yrotation Xrotation
                        }
                      }
                    }
                  }
                  JOINT LeftHandIndex1
                  {
                    OFFSET 3.247555 -0.531998 2.296169
                    CHANNELS 3 Zrotation Yrotation Xrotation
                    JOINT LeftHandIndex2
                    {
                      OFFSET 6.364578 0.01206 0.1786
                      CHANNELS 3 Zrotation Yrotation Xrotation
                      JOINT LeftHandIndex3
                      {
                        OFFSET 3.662364 0.0 0.0
                        CHANNELS 3 Zrotation Yrotation Xrotation
                        JOINT LeftHandIndex4
                        {
                          OFFSET 2.329242 4e-06 4e-06
                          CHANNELS 3 Zrotation Yrotation Xrotation
                          JOINT LeftHandIndexEnd
                          {
                            OFFSET 2.759615 -0.180537 -0.113024
                            CHANNELS 3 Zrotation Yrotation Xrotation
                          }
                        }
                      }
                    }
                  }
                  JOINT LeftHandMiddle1
                  {
                    OFFSET 3.163495 0.240981 1.000332
                    CHANNELS 3 Zrotation Yrotation Xrotation
                    JOINT LeftHandMiddle2
                    {
                      OFFSET 6.19078 -0.259278 -1.002548
                      CHANNELS 3 Zrotation Yrotation Xrotation
                      JOINT LeftHandMiddle3
                      {
                        OFFSET 4.35652 -4e-06 -1e-06
                        CHANNELS 3 Zrotation Yrotation Xrotation
                        JOINT LeftHandMiddle4
                        {
                          OFFSET 2.996877 -8e-06 0.0
                          CHANNELS 3 Zrotation Yrotation Xrotation
                          JOINT LeftHandMiddleEnd
                          {
                            OFFSET 2.304287 -0.294569 -0.031741
                            CHANNELS 3 Zrotation Yrotation Xrotation
                          }
                        }
                      }
                    }
                  }
                  JOINT LeftHandRing1
                  {
                    OFFSET 2.882643 -0.053652 -0.322543
                    CHANNELS 3 Zrotation Yrotation Xrotation
                    JOINT LeftHandRing2
                    {
                      OFFSET 5.854541 -0.486202 -1.373841
                      CHANNELS 3 Zrotation Yrotation Xrotation
                      JOINT LeftHandRing3
                      {
                        OFFSET 4.350578 0.0 3e-06
                        CHANNELS 3 Zrotation Yrotation Xrotation
                        JOINT LeftHandRing4
                        {
                          OFFSET 2.651321 7e-06 2e-06
                          CHANNELS 3 Zrotation Yrotation Xrotation
                          JOINT LeftHandRingEnd
                          {
                            OFFSET 1.936105 0.077687 -7.1e-05
                            CHANNELS 3 Zrotation Yrotation Xrotation
                          }
                        }
                      }
                    }
                  }
                  JOINT LeftHandPinky1
                  {
                    OFFSET 2.8655 -0.310005 -1.600378
                    CHANNELS 3 Zrotation Yrotation Xrotation
                    JOINT LeftHandPinky2
                    {
                      OFFSET 5.087849 -1.331141 -1.77123
                      CHANNELS 3 Zrotation Yrotation Xrotation
                      JOINT LeftHandPinky3
                      {
                        OFFSET 3.070974 4e-06 0.0
                        CHANNELS 3 Zrotation Yrotation Xrotation
                        JOINT LeftHandPinky4
                        {
                          OFFSET 1.549672 0.0 1e-06
                          CHANNELS 3 Zrotation Yrotation Xrotation
                          JOINT LeftHandPinkyEnd
                          {
                            OFFSET 1.944893 -0.157802 0.057219
                            CHANNELS 3 Zrotation Yrotation Xrotation
                          }
                        }
                      }
                    }
                  }
                }
              }
            }
          }
          JOINT RightShoulder
          {
            OFFSET -1.380118 23.180309 5.214158
            CHANNELS 3 Zrotation Yrotation Xrotation
            JOINT RightArm
            {
              OFFSET -15.037196 1.2e-05 -5.545604
              CHANNELS 3 Zrotation Yrotation Xrotation
              JOINT RightForeArm
              {
                OFFSET -28.736639 2e-06 -0.002597
                CHANNELS 3 Zrotation Yrotation Xrotation
                JOINT RightHand
                {
                  OFFSET -27.133619 -0.0 0.002613
                  CHANNELS 3 Zrotation Yrotation Xrotation
                  JOINT RightHandThumb1
                  {
                    OFFSET -2.274032 -1.383988 3.163127
                    CHANNELS 3 Zrotation Yrotation Xrotation
                    JOINT RightHandThumb2
                    {
                      OFFSET -4.011429 -1.827466 1.640914
                      CHANNELS 3 Zrotation Yrotation Xrotation
                      JOINT RightHandThumb3
                      {
                        OFFSET -2.794935 -4e-06 -3e-06
                        CHANNELS 3 Zrotation Yrotation Xrotation
                        JOINT RightHandThumbEnd
                        {
                          OFFSET -3.183852 4e-06 1e-06
                          CHANNELS 3 Zrotation Yrotation Xrotation
                        }
                      }
                    }
                  }
                  JOINT RightHandIndex1
                  {
                    OFFSET -3.253266 -0.520057 2.282866
                    CHANNELS 3 Zrotation Yrotation Xrotation
                    JOINT RightHandIndex2
                    {
                      OFFSET -6.341917 0.012471 0.178266
                      CHANNELS 3 Zrotation Yrotation Xrotation
                      JOINT RightHandIndex3
                      {
                        OFFSET -3.654871 -8e-06 -0.0
                        CHANNELS 3 Zrotation Yrotation Xrotation
                        JOINT RightHandIndex4
                        {
                          OFFSET -2.327586 0.0 1e-06
                          CHANNELS 3 Zrotation Yrotation Xrotation
                          JOINT RightHandIndexEnd
                          {
                            OFFSET -2.76179 -0.180656 -0.113078
                            CHANNELS 3 Zrotation Yrotation Xrotation
                          }
                        }
                      }
                    }
                  }
                  JOINT RightHandMiddle1
                  {
                    OFFSET -3.168106 0.246593 1.00103
                    CHANNELS 3 Zrotation Yrotation Xrotation
                    JOINT RightHandMiddle2
                    {
                      OFFSET -6.180828 -0.258836 -1.000895
                      CHANNELS 3 Zrotation Yrotation Xrotation
                      JOINT RightHandMiddle3
                      {
                        OFFSET -4.348901 0.0 -0.0
                        CHANNELS 3 Zrotation Yrotation Xrotation
                        JOINT RightHandMiddle4
                        {
                          OFFSET -3.00024 -4e-06 -2e-06
                          CHANNELS 3 Zrotation Yrotation Xrotation
                          JOINT RightHandMiddleEnd
                          {
                            OFFSET -2.30252 -0.29437 -0.031706
                            CHANNELS 3 Zrotation Yrotation Xrotation
                          }
                        }
                      }
                    }
                  }
                  JOINT RightHandRing1
                  {
                    OFFSET -2.88569 -0.067952 -0.308858
                    CHANNELS 3 Zrotation Yrotation Xrotation
                    JOINT RightHandRing2
                    {
                      OFFSET -5.854198 -0.48613 -1.373731
                      CHANNELS 3 Zrotation Yrotation Xrotation
                      JOINT RightHandRing3
                      {
                        OFFSET -4.33881 -4e-06 -0.0
                        CHANNELS 3 Zrotation Yrotation Xrotation
                        JOINT RightHandRing4
                        {
                          OFFSET -2.654903 -4e-06 4e-06
                          CHANNELS 3 Zrotation Yrotation Xrotation
                          JOINT RightHandRingEnd
                          {
                            OFFSET -1.933568 0.077527 -5.2e-05
                            CHANNELS 3 Zrotation Yrotation Xrotation
                          }
                        }
                      }
                    }
                  }
                  JOINT RightHandPinky1
                  {
                    OFFSET -2.866425 -0.342796 -1.584145
                    CHANNELS 3 Zrotation Yrotation Xrotation
                    JOINT RightHandPinky2
                    {
                      OFFSET -5.091371 -1.332055 -1.772385
                      CHANNELS 3 Zrotation Yrotation Xrotation
                      JOINT RightHandPinky3
                      {
                        OFFSET -3.062664 -4e-06 1e-06
                        CHANNELS 3 Zrotation Yrotation Xrotation
                        JOINT RightHandPinky4
                        {
                          OFFSET -1.546529 4e-06 -2e-06
                          CHANNELS 3 Zrotation Yrotation Xrotation
                          JOINT RightHandPinkyEnd
                          {
                            OFFSET -1.945119 -0.157718 0.057211
                            CHANNELS 3 Zrotation Yrotation Xrotation
                          }
                        }
                      }
                    }
                  }
                }
              }
            }
          }
        }
      }
    }
    JOINT LeftLeg
    {
      OFFSET 10.043214 -8.434526 2.595655
      CHANNELS 3 Zrotation Yrotation Xrotation
      JOINT LeftShin
      {
        OFFSET -1e-06 -43.221752 -0.802913
        CHANNELS 3 Zrotation Yrotation Xrotation
        JOINT LeftFoot
        {
          OFFSET 1e-06 -42.155094 -3.481523
          CHANNELS 3 Zrotation Yrotation Xrotation
          JOINT LeftToeBase
          {
            OFFSET 0.0 -5.059472 13.231529
            CHANNELS 3 Zrotation Yrotation Xrotation
            JOINT LeftToeEnd
            {
              OFFSET -0.009607 -1.647619 6.513017
              CHANNELS 3 Zrotation Yrotation Xrotation
            }
          }
        }
      }
    }
    JOINT RightLeg
    {
      OFFSET -10.047278 -8.29526 2.620317
      CHANNELS 3 Zrotation Yrotation Xrotation
      JOINT RightShin
      {
        OFFSET 1e-06 -43.362206 -0.805556
        CHANNELS 3 Zrotation Yrotation Xrotation
        JOINT RightFoot
        {
          OFFSET 2e-06 -42.117393 -3.478398
          CHANNELS 3 Zrotation Yrotation Xrotation
          JOINT RightToeBase
          {
            OFFSET -0.0 -5.079609 13.284196
            CHANNELS 3 Zrotation Yrotation Xrotation
            JOINT RightToeEnd
            {
              OFFSET 0.009532 -1.634378 6.460591
              CHANNELS 3 Zrotation Yrotation Xrotation
            }
          }
        }
      }
    }
  }
}
MOTION
Frames: 5
Frame Time: 0.03333333333333333
0.0 0.0 0.0 0.0 -0.0 0.0 -1.581677 105.991913 -1.68619 2.985656 0.478939 0.193247 -7.493654 1.223583 7.206042 -3.529832 2.125684 -1.725443 -13.017118 1.818444 19.305159 -5.778312 11.90617 28.722794 -1.831225 -1.474355 -3.543076 3.705563 -3.40608 1.546619 7.5e-05 -2.2e-05 6e-06 -0.15274 -0.020073 -0.156413 0.802724 -3.764087 -10.931038 -1.124516 3.72046 -10.927434 -7.969477 5.176682 15.214396 -29.101702 19.823637 15.673621 1.344955 -34.006649 1.775311 -1.47985 -1.535424 -32.176411 -5.882108 9.861285 0.702591 -10.936877 -0.360575 7.156208 1e-06 8.774822 -1e-06 -17.379353 17.756021 5.601608 -1.844034 2.498506 -2.507278 -10.163606 4.678944 4.62111 -20.976032 -1e-06 3e-06 -21.226294 2.451698 -3.594 -0.0 -6e-06 0.0 -1.362683 2.240799 -0.746323 -21.334925 0.584911 3.008326 -13.82122 -2e-06 3e-06 -23.88718 -0.249078 -0.839482 -60.111252 2.319355 -1.148597 -0.294026 1.679687 0.833257 -14.218217 0.093214 1.300582 -34.212067 -0.287563 0.967172 -20.033222 0.964537 1.212844 -1e-06 1e-06 -0.0 -3.440391 0.788232 0.501656 -15.928192 -3.167309 2.999708 -6.338829 -2e-06 1e-06 -18.123453 3.648183 -4.905671 -3e-06 -1e-06 -1e-06 -1.573585 3.303856 10.791539 51.092892 -42.820133 -21.274063 -7.764189 44.859085 -2.908735 -9.487997 9.686305 -5.795212 2.243542 -5.255037 -3.180158 14.282888 -0.826596 6.952504 -2e-06 -12.690603 2e-06 15.397292 -16.264488 2.701982 1.665666 -1.955922 -2.878301 4.727798 -4.170588 4.993925 11.020525 3e-06 -3e-06 12.109052 -3.735715 -2.866786 1e-06 0.0 0.0 1.291985 -1.928549 -1.498091 14.800125 0.567467 3.865608 14.24257 -1.341735 -6.66066 19.631962 0.143925 -0.648247 48.157337 -0.230631 -6.224319 0.353029 -1.51115 -0.031941 20.222788 3.684308 2.316629 18.78727 3e-06 -1e-06 10.751625 -0.47987 1.397905 0.0 -0.0 0.0 3.273806 0.305947 -0.58011 21.486809 11.830372 2.266131 8.162928 2e-06 1e-06 18.399078 -3.798986 -4.940575 5e-06 0.0 -2e-06 -8.64591 3.726213 -24.111399 0.058842 0.070057 31.128208 -6.953466 5.524923 -13.337493 1.704732 -1.880509 -2.667166 0.0 0.0 2e-06 0.496383 -13.021543 -13.184762 -0.085476 -0.937264 81.825455 7.483208 0.80968 4.192503 -1.222913 0.785942 -6.625576 -0.0 0.0 -1e-06 
0.0 0.0 0.0 0.0 -0.0 0.0 -1.388814 106.927399 -0.429154 3.203503 2.142913 0.186881 -7.557942 0.989534 8.296187 -3.388921 1.248199 -1.323091 -13.104361 0.843008 20.333368 -6.167068 12.322494 29.672228 -1.704713 -1.705263 -3.528177 3.316838 -3.444384 0.88026 7.6e-05 -2.2e-05 6e-06 -0.276195 0.013246 -0.167112 0.678747 -3.756848 -10.972499 -1.244483 3.773766 -10.979155 -8.281421 3.874422 15.349292 -31.34016 17.193102 15.830164 0.801571 -37.702538 1.843192 -2.336727 -1.148855 -31.340357 -5.882108 9.861286 0.702591 -10.936874 -0.360575 7.156207 -0.0 8.774828 -1e-06 -17.019274 17.775997 5.789408 -1.844033 2.498504 -2.507278 -10.163603 4.678946 4.621109 -20.97603 -2e-06 2e-06 -21.226292 2.4517 -3.594 2e-06 -7e-06 -1e-06 -1.362682 2.2408 -0.746323 -21.334919 0.58491 3.008323 -13.821215 -2e-06 2e-06 -23.887175 -0.249078 -0.839484 -59.845245 2.476147 -0.783593 -0.294026 1.679688 0.833256 -14.218213 0.093217 1.300581 -34.212059 -0.287561 0.96717 -20.033218 0.964537 1.212842 -0.0 1e-06 1e-06 -3.440389 0.788234 0.501656 -15.928191 -3.16731 2.999707 -6.338828 -1e-06 1e-06 -18.123451 3.648185 -4.905671 -4e-06 -0.0 -2e-06 -1.302765 1.299519 10.773096 52.534191 -45.044003 -21.195505 -6.397147 39.796162 -2.237162 -7.151964 9.567054 -12.441984 2.243542 -5.255037 -3.180159 14.282894 -0.826595 6.952506 -3e-06 -12.690607 4e-06 15.111141 -16.467863 2.725525 1.665667 -1.955922 -2.878301 4.727799 -4.170588 4.993927 11.020528 4e-06 -2e-06 12.109056 -3.735716 -2.866785 1e-06 -0.0 1e-06 1.291986 -1.928549 -1.49809 14.800132 0.567468 3.865609 14.242577 -1.341734 -6.660662 19.631973 0.143927 -0.648247 48.142155 -0.228965 -5.991759 0.353029 -1.51115 -0.031941 20.222799 3.68431 2.31663 18.787283 5e-06 -1e-06 10.751633 -0.479868 1.397906 -0.0 -0.0 0.0 3.273808 0.305947 -0.580111 21.486818 11.830376 2.26613 8.16293 1e-06 -1e-06 18.399084 -3.798985 -4.940576 5e-06 0.0 -0.0 -8.84988 3.094667 -22.488569 -0.046827 0.026235 30.418705 -7.232085 4.16947 -12.069686 1.701616 -1.814693 -2.482865 0.0 0.0 2e-06 -0.216464 -10.022326 -19.764311 -0.152158 -0.887886 89.323433 6.928589 0.33182 2.589895 -1.181801 0.820191 -4.528005 0.0 -0.0 -1e-06 
0.0 0.0 0.0 0.0 -0.0 0.0 -0.98327 107.350708 1.873168 3.585175 3.537447 -0.072302 -7.648108 0.842814 9.168791 -3.363341 0.278708 -1.057962 -13.098367 0.12005 21.556112 -6.257835 12.632177 30.598896 -1.56306 -1.752226 -3.46864 3.023165 -3.12238 0.519076 7.7e-05 -2.2e-05 5e-06 -0.314731 -0.005857 -0.155173 0.62922 -3.774219 -10.937407 -1.270594 3.74744 -10.93922 -9.107524 2.161615 15.631218 -30.976551 14.330821 13.963637 0.813098 -41.797375 1.599261 -1.568814 -0.984314 -31.538235 -5.882112 9.861294 0.702592 -10.936883 -0.360574 7.156212 0.0 8.774834 -0.0 -16.92849 18.027449 5.893686 -1.844035 2.498506 -2.507279 -10.16361 4.678951 4.621113 -20.976049 -2e-06 3e-06 -21.226313 2.451699 -3.594002 1e-06 -6e-06 -0.0 -1.362684 2.240799 -0.746324 -21.334936 0.584912 3.008326 -13.821229 -3e-06 3e-06 -23.887196 -0.249078 -0.839483 -59.818157 2.551787 -0.785804 -0.294024 1.679688 0.833257 -14.218224 0.093215 1.300582 -34.212086 -0.287562 0.967172 -20.033234 0.964537 1.212844 -1e-06 0.0 1e-06 -3.440392 0.788234 0.501656 -15.928203 -3.167312 2.999709 -6.338833 -2e-06 1e-06 -18.123466 3.648185 -4.905674 -4e-06 -0.0 -1e-06 -0.963021 -0.026142 10.691448 53.020233 -47.297665 -23.460627 -2.625597 34.281143 -0.856111 -2.352692 8.946451 -17.889153 2.243543 -5.255038 -3.18016 14.282903 -0.826596 6.952508 -4e-06 -12.690614 2e-06 14.785374 -16.608421 2.903355 1.665668 -1.955921 -2.878301 4.727803 -4.170589 4.993928 11.020536 4e-06 -1e-06 12.109062 -3.735716 -2.866785 1e-06 0.0 0.0 1.291987 -1.92855 -1.49809 14.80014 0.567468 3.865611 14.242584 -1.341734 -6.660661 19.631985 0.143928 -0.648245 48.530819 0.026666 -5.743164 0.353029 -1.511151 -0.03194 20.222811 3.684313 2.316631 18.787292 5e-06 -1e-06 10.751636 -0.479868 1.397907 0.0 0.0 0.0 3.27381 0.305949 -0.580111 21.486832 11.830383 2.266132 8.162935 2e-06 -1e-06 18.399096 -3.798986 -4.940577 4e-06 -0.0 -1e-06 -8.96667 2.288201 -20.460718 -0.10338 0.104832 29.863159 -7.792459 2.45733 -11.21453 1.71278 -1.807463 -1.986928 0.0 0.0 2e-06 -1.691392 -6.536676 -26.590105 -0.083465 -0.594554 94.959541 5.890604 -1.290861 -0.636903 -1.313994 0.871752 -3.657045 -0.0 -0.0 -1e-06 
0.0 0.0 0.0 0.0 -0.0 0.0 -0.809531 107.547142 4.330635 3.912418 4.69874 -0.357046 -7.734283 0.697514 9.671947 -3.334807 -0.464858 -0.89339 -13.316034 -0.465359 22.767784 -6.266674 12.542757 30.729387 -1.540591 -1.48427 -3.400421 3.005518 -2.661074 0.295593 7.7e-05 -2.3e-05 5e-06 -0.250329 -0.05134 -0.155738 0.664627 -3.802445 -10.865427 -1.174737 3.680865 -10.870148 -10.346929 0.208825 15.867233 -28.140524 11.867512 10.872662 1.07043 -45.264591 0.944598 0.994062 -0.817313 -32.60614 -5.88211 9.861288 0.70259 -10.936877 -0.360575 7.156207 1e-06 8.774828 -1e-06 -16.839569 18.211647 5.910981 -1.844035 2.498505 -2.507279 -10.163605 4.678947 4.621109 -20.976038 -5e-06 -1e-06 -21.226301 2.451695 -3.594004 -0.0 -6e-06 0.0 -1.362683 2.240799 -0.746324 -21.334929 0.584909 3.00832 -13.821223 -4e-06 -0.0 -23.88719 -0.249083 -0.839486 -60.16877 2.654202 -0.908967 -0.294025 1.679688 0.833256 -14.218217 0.093215 1.300578 -34.212067 -0.287567 0.967165 -20.033226 0.964534 1.212842 -1e-06 -0.0 0.0 -3.44039 0.788234 0.501655 -15.928192 -3.16731 2.999705 -6.338829 -1e-06 -1e-06 -18.123459 3.648182 -4.905676 -4e-06 -0.0 -2e-06 -0.663643 -0.835445 10.655912 53.180252 -49.100361 -28.125105 0.234961 29.160322 -0.142878 3.1246 7.207922 -18.633898 2.243541 -5.255034 -3.180157 14.282887 -0.826592 6.952499 -3e-06 -12.690601 1e-06 15.169794 -16.811478 3.01099 1.665666 -1.955919 -2.878298 4.727798 -4.170584 4.993923 11.020524 2e-06 -2e-06 12.109052 -3.735714 -2.866784 0.0 -1e-06 1e-06 1.291986 -1.928551 -1.498089 14.800125 0.567468 3.865606 14.242571 -1.341736 -6.660658 19.631966 0.143929 -0.648247 49.691666 0.391119 -5.441506 0.353029 -1.511148 -0.03194 20.222788 3.684309 2.316628 18.78727 5e-06 -3e-06 10.751625 -0.479867 1.397904 -1e-06 0.0 -0.0 3.273806 0.305945 -0.580111 21.486809 11.830371 2.26613 8.162928 3e-06 -1e-06 18.39908 -3.798982 -4.940574 2e-06 0.0 -1e-06 -8.960246 1.771029 -18.426985 -0.087566 0.179507 29.604485 -8.791677 0.456143 -10.849795 1.729078 -1.859346 -1.58222 0.0 0.0 2e-06 -3.233662 -3.552188 -32.598026 0.007047 -0.34218 95.931412 3.519826 -5.279196 -4.054365 -1.501006 0.975644 -3.032137 0.0 -0.0 -1e-06 
0.0 0.0 0.0 0.0 -0.0 0.0 -0.637764 107.733109 6.782471 3.82008 6.117624 -0.548291 -7.667779 0.53899 10.041032 -3.231636 -0.991033 -0.698499 -13.449348 -1.158188 23.59495 -6.288113 12.124178 30.185366 -1.368342 -1.052448 -3.370453 3.295645 -2.189023 -0.112534 7.7e-05 -2.3e-05 6e-06 -0.189722 -0.075394 -0.161667 0.679921 -3.809661 -10.81157 -1.066014 3.638077 -10.816401 -11.085766 -2.036327 15.932415 -24.656584 9.631949 7.75115 0.862855 -48.023037 0.663336 4.328109 -0.466827 -33.5135 -5.882108 9.861289 0.702591 -10.936878 -0.360576 7.156208 2e-06 8.77483 0.0 -16.619919 18.079588 5.85904 -1.844033 2.498506 -2.507279 -10.163606 4.678946 4.62111 -20.976038 -6e-06 1e-06 -21.226299 2.451695 -3.594002 -1e-06 -6e-06 -0.0 -1.362682 2.240799 -0.746323 -21.334929 0.584908 3.008322 -13.821222 -4e-06 1e-06 -23.887184 -0.249082 -0.839483 -60.404751 2.637363 -0.900657 -0.294026 1.679688 0.833256 -14.218217 0.093214 1.300581 -34.21207 -0.287568 0.96717 -20.033226 0.964535 1.212845 0.0 0.0 -0.0 -3.44039 0.788233 0.501656 -15.9282 -3.167312 2.999707 -6.338831 -2e-06 0.0 -18.123459 3.648182 -4.905673 -4e-06 -0.0 -2e-06 -0.226212 -1.575394 11.103756 53.384949 -49.947792 -33.777855 0.548145 25.182131 -0.246465 7.153393 4.654366 -17.322186 2.243544 -5.25504 -3.18016 14.282906 -0.826597 6.952511 -2e-06 -12.690612 4e-06 15.42665 -16.97887 3.044562 1.665668 -1.955925 -2.878302 4.727804 -4.170592 4.99393 11.020538 5e-06 -1e-06 12.109066 -3.735717 -2.866785 0.0 -1e-06 -0.0 1.291987 -1.928549 -1.498091 14.800146 0.567467 3.865611 14.242586 -1.341736 -6.660663 19.63199 0.143925 -0.648245 50.298298 0.448681 -5.319396 0.353029 -1.511152 -0.03194 20.222815 3.684313 2.316633 18.787296 2e-06 1e-06 10.751639 -0.47987 1.397907 -1e-06 0.0 -0.0 3.27381 0.305948 -0.580111 21.486837 11.830384 2.266133 8.162937 3e-06 0.0 18.399105 -3.79899 -4.940579 2e-06 1e-06 0.0 -8.418195 1.449181 -16.479639 -0.114635 0.085732 29.485376 -10.679577 -2.005476 -10.649661 1.728846 -1.913706 -1.46315 -0.0 -0.0 2e-06 -4.09086 -1.868783 -36.827156 -0.00595 -0.264292 91.177078 0.140969 -9.697056 -5.720729 -1.579175 1.070418 -2.618082 -0.0 -0.0 -3e-06 
